<svg width="87" height="75" viewBox="0 0 87 75" fill="none" xmlns="http://www.w3.org/2000/svg">
<g clip-path="url(#clip0_1388_4537)">
<path d="M43.5805 69.0184L39.5186 72.0101L43.5805 75L47.6407 72.0101L43.5805 69.0184Z" fill="#00378C"/>
<path d="M68.1025 1.89063C70.0188 3.64932 70.362 6.40976 70.362 6.40976C70.362 6.40976 67.6006 6.31774 65.6843 4.55905C63.768 2.80035 63.4248 0.039917 63.4248 0.039917C63.4248 0.039917 66.1862 0.131932 68.1025 1.89063Z" fill="#00378C"/>
<path d="M54.6298 66.7019C52.9809 68.8321 52.8809 71.3478 52.9033 71.3547C52.8964 71.386 56.3633 70.4103 57.9208 68.0613C59.4766 65.7418 58.7194 63.3373 58.7418 63.3443C58.7332 63.3668 56.277 64.5908 54.6298 66.7002V66.7019Z" fill="#00378C"/>
<path d="M57.0583 74.0788C54.0158 73.558 52.8791 71.242 52.8809 71.2628C52.9171 71.2732 56.1787 70.327 58.9884 70.6586C61.8257 71.0059 63.4936 72.7802 63.4936 72.7993C63.5333 72.808 60.1354 74.6101 57.0601 74.0771L57.0583 74.0788Z" fill="#00378C"/>
<path d="M60.6458 64.0422C59.5126 66.3773 59.9197 68.82 59.9404 68.8252C59.9369 68.8582 62.9847 67.3339 64.0109 64.7991C65.0406 62.2922 63.8695 60.0942 63.8902 60.0977C63.885 60.122 61.779 61.7262 60.6458 64.0422Z" fill="#00378C"/>
<path d="M64.363 70.7541C61.4049 70.7628 59.8992 68.7176 59.9009 68.7384C59.9337 68.7436 62.7934 67.2818 65.5203 67.1273C68.2748 66.9815 70.2049 68.4121 70.2066 68.4311C70.2446 68.4346 67.3521 70.7541 64.363 70.7558V70.7541Z" fill="#00378C"/>
<path d="M65.8396 60.4432C65.1962 62.8981 66.0534 65.1898 66.0724 65.1898C66.0724 65.221 68.6838 63.2297 69.2064 60.5942C69.7342 57.9883 68.2095 56.0577 68.2284 56.0577C68.2284 56.082 66.4864 58.0057 65.8396 60.4415V60.4432Z" fill="#00378C"/>
<path d="M70.6519 66.3026C67.8284 66.8182 66.0139 65.0943 66.0191 65.1133C66.0501 65.1133 68.4907 63.2123 71.0865 62.5908C73.7082 61.9744 75.8349 63.0265 75.8401 63.0439C75.8746 63.0404 73.5064 65.7904 70.6536 66.3026H70.6519Z" fill="#00378C"/>
<path d="M70.1754 56.056C69.996 58.5508 71.243 60.622 71.262 60.6203C71.2672 60.6515 73.4214 58.2678 73.4663 55.615C73.5198 52.9883 71.7018 51.3771 71.7208 51.3737C71.7225 51.398 70.3616 53.5785 70.1771 56.056H70.1754Z" fill="#00378C"/>
<path d="M75.8846 60.9032C73.2456 61.8928 71.1897 60.5369 71.1948 60.5543C71.2224 60.5491 73.2284 58.2834 75.6431 57.2227C78.0803 56.1636 80.338 56.8112 80.3449 56.8285C80.3777 56.8199 78.5511 59.9084 75.8846 60.9015V60.9032Z" fill="#00378C"/>
<path d="M73.6146 51.0265C73.8699 53.4883 75.4498 55.2817 75.4653 55.2765C75.4739 55.3061 77.1556 52.6081 76.7503 50.0126C76.3553 47.4414 74.3097 46.1897 74.3269 46.1844C74.3321 46.2088 73.3679 48.582 73.6146 51.0265Z" fill="#00378C"/>
<path d="M80.0188 54.7384C77.6179 56.1672 75.3825 55.2089 75.3911 55.2245C75.417 55.2158 76.9728 52.6585 79.1529 51.195C81.3538 49.7297 83.6737 49.9589 83.6823 49.9745C83.7116 49.9606 82.4456 53.3009 80.0188 54.7367V54.7384Z" fill="#00378C"/>
<path d="M76.1243 45.5056C76.7866 47.8684 78.6356 49.3355 78.6494 49.3285C78.6615 49.3563 79.8533 46.424 79.0254 43.9517C78.213 41.5038 76.0018 40.6409 76.0156 40.6323C76.026 40.6548 75.4723 43.1583 76.1226 45.5038L76.1243 45.5056Z" fill="#00378C"/>
<path d="M83.0132 47.9899C80.9038 49.8145 78.558 49.2746 78.5684 49.2902C78.5908 49.2781 79.6826 46.5038 81.5747 44.6791C83.4875 42.8492 85.7988 42.6565 85.8091 42.6704C85.8367 42.653 85.1485 46.1548 83.0132 47.9899Z" fill="#00378C"/>
<path d="M77.6644 39.6426C78.7045 41.844 80.757 42.9499 80.7708 42.9395C80.7881 42.9656 81.4694 39.8753 80.2499 37.5905C79.0477 35.3266 76.7382 34.8752 76.752 34.8648C76.7658 34.8856 76.6382 37.4551 77.6644 39.6426Z" fill="#00378C"/>
<path d="M84.8242 40.8423C83.0597 43.0142 80.6725 42.9048 80.6846 42.917C80.7036 42.9014 81.3159 39.9847 82.8665 37.8458C84.4361 35.6982 86.6663 35.0888 86.68 35.1009C86.7042 35.0801 86.6128 38.6548 84.8242 40.8406V40.8423Z" fill="#00378C"/>
<path d="M78.201 33.5889C79.586 35.575 81.7799 36.2903 81.792 36.2799C81.8127 36.3025 81.9679 33.134 80.3863 31.0923C78.8253 29.068 76.4865 29.0368 76.4986 29.0229C76.5158 29.042 76.8315 31.6149 78.201 33.5889Z" fill="#00378C"/>
<path d="M85.4108 33.4777C84.0465 35.9395 81.6887 36.2624 81.7042 36.2728C81.7197 36.2537 81.8353 33.2693 82.9909 30.8718C84.1638 28.462 86.2387 27.4533 86.2542 27.4637C86.2749 27.4394 86.7975 30.9985 85.4108 33.4777Z" fill="#00378C"/>
<path d="M77.6973 27.4934C79.3962 29.2156 81.6644 29.5264 81.6747 29.5125C81.7006 29.5316 81.309 26.3632 79.398 24.6149C77.511 22.8805 75.2119 23.2659 75.2222 23.252C75.2446 23.2677 76.0173 25.7798 77.6973 27.4934Z" fill="#00378C"/>
<path d="M84.7311 26.0819C83.8222 28.7728 81.5678 29.5159 81.5851 29.5246C81.5989 29.5038 81.2005 26.5246 81.9059 23.9273C82.6252 21.3162 84.469 19.9342 84.4862 19.9429C84.5035 19.9151 85.6591 23.37 84.7294 26.0819H84.7311Z" fill="#00378C"/>
<path d="M76.1139 21.5106C78.094 22.9272 80.3655 22.8266 80.3742 22.8127C80.4035 22.8283 79.4497 19.738 77.2419 18.3265C75.0618 16.9255 72.8747 17.7171 72.8833 17.7015C72.9092 17.7137 74.1562 20.1008 76.1139 21.5106Z" fill="#00378C"/>
<path d="M82.7438 18.8352C82.3489 21.6859 80.2705 22.8318 80.2912 22.837C80.3015 22.8144 79.377 19.9151 79.5719 17.1859C79.7806 14.4411 81.3157 12.7241 81.3364 12.7293C81.3519 12.6997 83.1561 15.9602 82.7421 18.8352H82.7438Z" fill="#00378C"/>
<path d="M73.4166 15.7901C75.6433 16.8648 77.8493 16.3578 77.8562 16.3422C77.8907 16.3543 76.3539 13.422 73.884 12.3821C71.4434 11.3491 69.4409 12.5279 69.4478 12.5106C69.4788 12.5192 71.2157 14.7172 73.4166 15.7884V15.7901Z" fill="#00378C"/>
<path d="M79.4034 11.9272C79.5811 14.863 77.7562 16.3786 77.7787 16.3821C77.7856 16.3578 76.3178 13.6113 75.9469 10.8248C75.5864 8.02094 76.7352 6.01572 76.7576 6.01746C76.7697 5.98621 79.2413 8.9654 79.4034 11.9255V11.9272Z" fill="#00378C"/>
<path d="M69.5682 10.4844C72.007 11.1876 74.0751 10.2882 74.0785 10.2726C74.1165 10.2796 71.9812 7.5851 69.2836 6.94968C66.6187 6.316 64.8767 7.84899 64.8818 7.83163C64.9163 7.8351 67.1586 9.77956 69.5682 10.4844Z" fill="#00378C"/>
<path d="M74.6702 5.54171C75.4791 8.48097 73.9854 10.3282 74.0113 10.3282C74.0148 10.3039 71.9881 7.78479 70.9912 5.01914C70.0029 2.2344 70.6824 4.42617e-06 70.7083 4.42617e-06C70.7169 -0.0329819 73.8751 2.57468 74.6702 5.54171Z" fill="#00378C"/>
<path d="M43.1497 72.1273L43.198 71.5891C47.6325 71.9936 52.0532 71.4953 56.3359 70.1117C60.5099 68.7627 64.3735 66.6325 67.8214 63.7817C74.9759 57.865 79.5897 49.4205 80.8126 40.0038C81.8147 32.2937 81.3007 25.4221 79.2844 19.5818C77.1198 13.3091 73.2666 8.40285 67.8283 4.99484L68.1129 4.5365C73.6564 8.01048 77.5855 13.014 79.7915 19.4047C81.8354 25.3249 82.3563 32.2798 81.3439 40.075C80.102 49.6271 75.4209 58.1949 68.1594 64.2002C64.6598 67.096 60.7358 69.2575 56.4963 70.6273C52.1429 72.0335 47.6515 72.5388 43.1445 72.129L43.1497 72.1273Z" fill="#00378C"/>
<path d="M19.6457 1.89063C17.7295 3.64932 17.3862 6.40976 17.3862 6.40976C17.3862 6.40976 20.1476 6.31774 22.0639 4.55905C23.9784 2.80035 24.3234 0.039917 24.3234 0.039917C24.3234 0.039917 21.562 0.131932 19.6457 1.89063Z" fill="#00378C"/>
<path d="M33.118 66.7019C34.7669 68.8321 34.867 71.3477 34.8445 71.3547C34.8514 71.3859 31.3846 70.4102 29.8271 68.0612C28.2713 65.7418 29.0285 63.3372 29.0061 63.3442C29.0147 63.3668 31.4708 64.5907 33.118 66.7001V66.7019Z" fill="#00378C"/>
<path d="M30.6895 74.0788C33.7321 73.5579 34.8687 71.2419 34.867 71.2628C34.8308 71.2732 31.5692 70.327 28.7595 70.6586C25.9221 71.0058 24.2543 72.7801 24.2543 72.7992C24.2146 72.8079 27.6125 74.61 30.6878 74.077L30.6895 74.0788Z" fill="#00378C"/>
<path d="M27.1018 64.0421C28.235 66.3772 27.828 68.8199 27.8073 68.8251C27.8107 68.8581 24.763 67.3338 23.7367 64.799C22.707 62.2921 23.8782 60.0941 23.8575 60.0976C23.8627 60.1219 25.9686 61.7261 27.1018 64.0421Z" fill="#00378C"/>
<path d="M23.385 70.7539C26.3431 70.7626 27.8488 68.7174 27.8471 68.7383C27.8143 68.7435 24.9546 67.2816 22.2277 67.1271C19.4732 66.9813 17.5431 68.4119 17.5414 68.431C17.5034 68.4344 20.3959 70.7539 23.385 70.7556V70.7539Z" fill="#00378C"/>
<path d="M21.9086 60.4431C22.552 62.898 21.6947 65.1897 21.6758 65.1897C21.6758 65.2209 19.0644 63.2296 18.5418 60.5942C18.014 57.9882 19.5387 56.0577 19.5198 56.0577C19.5198 56.082 21.2618 58.0056 21.9086 60.4414V60.4431Z" fill="#00378C"/>
<path d="M17.0963 66.3025C19.9198 66.8182 21.7343 65.0942 21.7291 65.1133C21.6981 65.1133 19.2575 63.2122 16.6617 62.5907C14.0399 61.9744 11.9133 63.0265 11.9081 63.0438C11.8736 63.0404 14.2418 65.7904 17.0946 66.3025H17.0963Z" fill="#00378C"/>
<path d="M17.5724 56.056C17.7517 58.5508 16.5047 60.622 16.4857 60.6203C16.4806 60.6515 14.3263 58.2678 14.2814 55.615C14.228 52.9883 16.0459 51.3771 16.0269 51.3737C16.0252 51.398 17.3861 53.5785 17.5706 56.056H17.5724Z" fill="#00378C"/>
<path d="M11.8631 60.9032C14.5021 61.8928 16.5581 60.5369 16.5529 60.5543C16.5253 60.5491 14.5193 58.2834 12.1046 57.2227C9.66745 56.1636 7.40968 56.8112 7.40278 56.8285C7.37001 56.8199 9.19658 59.9084 11.8631 60.9015V60.9032Z" fill="#00378C"/>
<path d="M14.1314 51.0264C13.8761 53.4882 12.2962 55.2816 12.2806 55.2764C12.272 55.3059 10.5903 52.608 10.9957 50.0125C11.3906 47.4413 13.4363 46.1895 13.419 46.1843C13.4138 46.2086 14.378 48.5819 14.1314 51.0264Z" fill="#00378C"/>
<path d="M7.72893 54.7383C10.1299 56.1671 12.3652 55.2088 12.3566 55.2244C12.3307 55.2157 10.7749 52.6584 8.59479 51.1949C6.39393 49.7296 4.07406 49.9587 4.06544 49.9744C4.03612 49.9605 5.30213 53.3008 7.72893 54.7366V54.7383Z" fill="#00378C"/>
<path d="M11.6237 45.5056C10.9614 47.8684 9.1124 49.3355 9.0986 49.3285C9.08653 49.3563 7.89469 46.424 8.7226 43.9517C9.53498 41.5038 11.7462 40.6409 11.7324 40.6323C11.722 40.6548 12.2757 43.1583 11.6254 45.5038L11.6237 45.5056Z" fill="#00378C"/>
<path d="M4.7347 47.9899C6.84414 49.8145 9.18987 49.2746 9.17953 49.2902C9.1571 49.2781 8.0653 46.5038 6.17319 44.6791C4.26037 42.8492 1.94913 42.6565 1.93878 42.6704C1.91118 42.653 2.59938 46.1548 4.7347 47.9899Z" fill="#00378C"/>
<path d="M10.0816 39.6426C9.04152 41.844 6.989 42.9499 6.9752 42.9395C6.95795 42.9656 6.27665 39.8753 7.49609 37.5905C8.69829 35.3266 11.0078 34.8752 10.994 34.8648C10.9802 34.8856 11.1078 37.4551 10.0816 39.6426Z" fill="#00378C"/>
<path d="M2.92366 40.8423C4.68814 43.0142 7.07528 42.9048 7.0632 42.917C7.04423 42.9013 6.43192 39.9846 4.88132 37.8457C3.31002 35.6999 1.07984 35.0905 1.06777 35.1027C1.04362 35.0818 1.13504 38.6565 2.92366 40.8423Z" fill="#00378C"/>
<path d="M9.54507 33.5889C8.16005 35.575 5.9661 36.2903 5.95402 36.2799C5.93332 36.3025 5.77809 33.134 7.35974 31.0923C8.92069 29.068 11.2595 29.0368 11.2475 29.0229C11.2302 29.042 10.9146 31.6149 9.54507 33.5889Z" fill="#00378C"/>
<path d="M2.33726 33.4777C3.70158 35.9395 6.0594 36.2624 6.04387 36.2728C6.02835 36.2537 5.91279 33.2693 4.75717 30.8718C3.5843 28.462 1.50935 27.4533 1.49383 27.4637C1.47313 27.4394 0.950516 30.9985 2.33726 33.4777Z" fill="#00378C"/>
<path d="M10.0504 27.4933C8.35142 29.2155 6.0833 29.5263 6.07295 29.5124C6.04708 29.5315 6.43861 26.363 8.3497 24.6148C10.2366 22.8804 12.5358 23.2658 12.5255 23.2519C12.503 23.2675 11.7303 25.7797 10.0504 27.4933Z" fill="#00378C"/>
<path d="M3.01491 26.0817C3.92389 28.7727 6.17821 29.5158 6.16096 29.5245C6.14717 29.5036 6.5456 26.5244 5.84015 23.9272C5.12091 21.3161 3.27709 19.9341 3.25984 19.9428C3.24259 19.915 2.08697 23.3699 3.01664 26.0817H3.01491Z" fill="#00378C"/>
<path d="M11.634 21.5106C9.6539 22.9272 7.38233 22.8266 7.3737 22.8127C7.34438 22.8283 8.2982 19.738 10.506 18.3265C12.6861 16.9255 14.8732 17.7171 14.8645 17.7015C14.8387 17.7137 13.5916 20.1008 11.634 21.5106Z" fill="#00378C"/>
<path d="M5.00382 18.8352C5.3988 21.6859 7.47719 22.8318 7.45649 22.837C7.44615 22.8144 8.37064 19.9151 8.17574 17.1859C7.96704 14.4411 6.43196 12.7241 6.41126 12.7293C6.39574 12.6997 4.59159 15.9602 5.00554 18.8352H5.00382Z" fill="#00378C"/>
<path d="M14.3299 15.79C12.1031 16.8646 9.89712 16.3577 9.89022 16.3421C9.85572 16.3542 11.3925 13.4219 13.8625 12.382C16.3031 11.349 18.3056 12.5278 18.2987 12.5104C18.2676 12.5191 16.5307 14.717 14.3299 15.7882V15.79Z" fill="#00378C"/>
<path d="M8.3447 11.9271C8.16704 14.8629 9.99189 16.3785 9.96947 16.382C9.96257 16.3577 11.4304 13.6111 11.8012 10.8247C12.1617 8.02082 11.013 6.0156 10.9906 6.01733C10.9785 5.98608 8.50683 8.96527 8.3447 11.9254V11.9271Z" fill="#00378C"/>
<path d="M18.1798 10.4844C15.7409 11.1876 13.6729 10.2882 13.6694 10.2726C13.6315 10.2796 15.7668 7.5851 18.4644 6.94968C21.1292 6.316 22.8713 7.84899 22.8661 7.83163C22.8316 7.8351 20.5894 9.77956 18.1798 10.4844Z" fill="#00378C"/>
<path d="M13.0778 5.54171C12.2689 8.48097 13.7626 10.3282 13.7367 10.3282C13.7333 10.3039 15.7599 7.78479 16.7569 5.01914C17.7452 2.2344 17.0639 4.42617e-06 17.0397 4.42617e-06C17.0311 -0.0329819 13.873 2.57468 13.0778 5.54171Z" fill="#00378C"/>
<path d="M44.5987 72.1273L44.5504 71.5891C40.116 71.9936 35.6953 71.4953 31.4126 70.1117C27.2386 68.7627 23.375 66.6325 19.9271 63.7817C12.7726 57.865 8.15873 49.4205 6.93584 40.0038C5.93372 32.2937 6.44772 25.4221 8.46402 19.5818C10.6287 13.3091 14.4819 8.40285 19.9202 4.99484L19.6356 4.5365C14.0921 8.01048 10.163 13.014 7.95692 19.4047C5.91303 25.3249 5.39213 32.2798 6.4046 40.075C7.64646 49.6271 12.3276 58.1949 19.589 64.2002C23.0887 67.096 27.0126 69.2575 31.2522 70.6273C35.6056 72.0335 40.097 72.5388 44.6039 72.129L44.5987 72.1273Z" fill="#00378C"/>
<path d="M32.1821 22.5447C32.2004 22.8703 32.2772 23.1346 32.4126 23.3377C32.6704 23.7179 33.1248 23.908 33.7759 23.908C34.0675 23.908 34.3332 23.8664 34.5728 23.783C35.0363 23.6216 35.2681 23.3325 35.2681 22.9158C35.2681 22.6033 35.1704 22.3807 34.9751 22.2479C34.7772 22.1177 34.4673 22.0044 34.0454 21.908L33.2681 21.7322C32.7603 21.6177 32.4009 21.4914 32.1899 21.3533C31.8254 21.1137 31.6431 20.7557 31.6431 20.2791C31.6431 19.7635 31.8215 19.3403 32.1782 19.0096C32.535 18.6789 33.0402 18.5135 33.6938 18.5135C34.2954 18.5135 34.8058 18.6593 35.2251 18.951C35.647 19.2401 35.8579 19.7036 35.8579 20.3416H35.1274C35.0884 20.0343 35.005 19.7986 34.8774 19.6346C34.6405 19.3351 34.2381 19.1854 33.6704 19.1854C33.2121 19.1854 32.8826 19.2817 32.6821 19.4744C32.4816 19.6671 32.3813 19.8911 32.3813 20.1463C32.3813 20.4276 32.4985 20.6333 32.7329 20.7635C32.8866 20.8468 33.2342 20.951 33.7759 21.076L34.5806 21.2596C34.9686 21.3481 35.2681 21.4692 35.479 21.6229C35.8436 21.8911 36.0259 22.2804 36.0259 22.7908C36.0259 23.4262 35.7941 23.8807 35.3306 24.1541C34.8696 24.4276 34.3332 24.5643 33.7212 24.5643C33.0076 24.5643 32.4491 24.382 32.0454 24.0174C31.6418 23.6554 31.4438 23.1645 31.4517 22.5447H32.1821ZM37.346 18.658H38.1312V24.3963H37.346V18.658ZM39.5568 18.658H40.4748L43.3732 23.3065V18.658H44.1115V24.3963H43.2404L40.299 19.7518V24.3963H39.5568V18.658ZM47.916 18.5018C48.6426 18.5018 49.2064 18.6932 49.6074 19.076C50.0085 19.4588 50.2311 19.8937 50.2754 20.3807H49.5176C49.4317 20.0109 49.2598 19.7179 49.002 19.5018C48.7468 19.2856 48.3874 19.1776 47.9238 19.1776C47.3587 19.1776 46.9017 19.3768 46.5528 19.7752C46.2064 20.171 46.0332 20.7791 46.0332 21.5994C46.0332 22.2713 46.1895 22.8169 46.502 23.2361C46.8171 23.6528 47.2858 23.8611 47.9082 23.8611C48.4811 23.8611 48.9173 23.6411 49.2168 23.201C49.3757 22.9692 49.4942 22.6645 49.5723 22.2869H50.3301C50.2624 22.8911 50.0384 23.3976 49.6582 23.8065C49.2025 24.2986 48.5879 24.5447 47.8145 24.5447C47.1478 24.5447 46.5879 24.3429 46.1348 23.9393C45.5384 23.4054 45.2403 22.5812 45.2403 21.4666C45.2403 20.6203 45.4642 19.9262 45.9121 19.3846C46.3965 18.796 47.0645 18.5018 47.916 18.5018ZM51.5135 18.658H55.6971V19.3611H52.2713V21.1033H55.4393V21.7674H52.2713V23.7127H55.7557V24.3963H51.5135V18.658Z" fill="#00378C"/>
<path d="M26.6569 34.6839V32.8119C28.6969 32.8119 29.1529 31.8279 29.5609 30.6999H31.3369V47.4999H28.6969V34.6839H26.6569ZM42.7726 34.7319V43.3239C42.7726 46.1559 41.4766 47.6919 38.7406 47.6919C36.1486 47.6919 34.8046 46.1559 34.8046 43.4679V43.0359H37.3006V43.6359C37.3006 44.8359 37.8286 45.2919 38.6686 45.2919C39.6046 45.2919 40.1326 44.8359 40.1326 43.2279V40.1559C39.6766 41.1159 38.8606 41.6439 37.6846 41.6439C35.7406 41.6439 34.7566 40.2759 34.7566 37.8039V34.7319C34.7566 32.0439 36.1726 30.5079 38.7646 30.5079C41.3566 30.5079 42.7726 32.0439 42.7726 34.7319ZM38.7646 39.2439C39.6046 39.2439 40.1326 38.7879 40.1326 37.5879V34.5639C40.1326 33.3639 39.6046 32.9319 38.7646 32.9319C37.9246 32.9319 37.3966 33.3639 37.3966 34.5639V37.5879C37.3966 38.7879 37.9246 39.2439 38.7646 39.2439ZM44.8482 43.4679V34.8759C44.8482 32.0439 46.1442 30.5079 48.8802 30.5079C51.4722 30.5079 52.8162 32.0439 52.8162 34.7319V35.1639H50.3202V34.5639C50.3202 33.3639 49.7922 32.9079 48.9522 32.9079C48.0162 32.9079 47.4882 33.3639 47.4882 34.9719V38.0439C47.9442 37.0839 48.7602 36.5559 49.9362 36.5559C51.8802 36.5559 52.8642 37.9239 52.8642 40.3959V43.4679C52.8642 46.1559 51.4482 47.6919 48.8562 47.6919C46.2642 47.6919 44.8482 46.1559 44.8482 43.4679ZM48.8562 38.9559C48.0162 38.9559 47.4882 39.4119 47.4882 40.6119V43.6359C47.4882 44.8359 48.0162 45.2679 48.8562 45.2679C49.6962 45.2679 50.2242 44.8359 50.2242 43.6359V40.6119C50.2242 39.4119 49.6962 38.9559 48.8562 38.9559ZM57.4358 34.5639V43.6359C57.4358 44.8359 57.9638 45.2919 58.8038 45.2919C59.6438 45.2919 60.1718 44.8359 60.1718 43.6359V34.5639C60.1718 33.3639 59.6438 32.9079 58.8038 32.9079C57.9638 32.9079 57.4358 33.3639 57.4358 34.5639ZM54.7958 43.4679V34.7319C54.7958 32.0439 56.2118 30.5079 58.8038 30.5079C61.3958 30.5079 62.8118 32.0439 62.8118 34.7319V43.4679C62.8118 46.1559 61.3958 47.6919 58.8038 47.6919C56.2118 47.6919 54.7958 46.1559 54.7958 43.4679Z" fill="#00378C"/>
</g>
<defs>
<clipPath id="clip0_1388_4537">
<rect width="85.6195" height="75" fill="white" transform="translate(0.929199)"/>
</clipPath>
</defs>
</svg>
