<svg width="82" height="75" viewBox="0 0 82 75" fill="none" xmlns="http://www.w3.org/2000/svg">
<g clip-path="url(#clip0_1411_4337)">
<path d="M81.0036 40.8243L76.6525 33.2286L57.3646 44.4739L60.1878 49.4053C60.1878 49.4053 60.2021 49.4196 60.2163 49.4196C71.6989 49.214 79.2527 45.6457 80.5623 44.9809C80.5955 44.9665 80.624 45.0096 80.6003 45.0335C73.3122 51.7969 61.2507 51.2516 61.2507 51.2516H46.5843C46.5843 51.2516 46.551 51.2372 46.551 51.2181V49.2331C46.551 49.2044 46.5178 49.19 46.4988 49.2092L34.9878 62.0759C34.9878 62.0759 34.9735 62.1094 34.9878 62.1237L46.4988 74.9904C46.4988 74.9904 46.551 74.9904 46.551 74.9665V73.2207C46.551 73.2207 46.5653 73.1872 46.5843 73.1872H62.4701C65.1415 73.1872 67.6041 71.7522 68.9421 69.4228L81.0083 48.353C82.3417 46.0236 82.3417 43.1489 81.0083 40.8195L81.0036 40.8243Z" fill="#00378C"/>
<path d="M40.1644 18.1952C40.1644 18.1952 40.1691 18.1712 40.1644 18.1617C34.5085 8.0405 27.7708 3.02774 26.5656 2.18591C26.5371 2.16677 26.5608 2.11894 26.5941 2.12851C35.932 5.35714 41.2035 16.2436 41.2367 16.3154L50.5272 32.5494C50.5272 32.5494 50.5272 32.5829 50.5177 32.5925L49.1607 33.3865C49.1607 33.3865 49.1417 33.4343 49.1654 33.4439L66.3182 37.1891C66.3182 37.1891 66.3561 37.1843 66.3609 37.1652L71.3098 20.5341C71.3145 20.5054 71.286 20.4863 71.2623 20.5006L69.8626 21.3186C69.8626 21.3186 69.8294 21.3186 69.8199 21.309L59.7797 3.76913C58.4464 1.43973 55.9791 0 53.3077 0H29.1753C26.5039 0 24.0413 1.43495 22.7033 3.76435L18.3237 11.4126L37.6164 22.6435L40.1644 18.1904V18.1952Z" fill="#00378C"/>
<path d="M23.3488 51.2659C17.6027 61.3201 16.7581 69.705 16.649 71.1782C16.649 71.2165 16.5921 71.2165 16.5873 71.1782C14.5802 61.3967 21.2373 51.2468 21.2373 51.2468H21.2325L30.8362 34.5105C30.8362 34.5105 30.8646 34.4914 30.8789 34.5009L32.1363 35.2328C32.1363 35.2328 32.1885 35.228 32.1837 35.1993L27.045 18.5969L10.0346 22.3039C10.0109 22.3134 10.0062 22.3469 10.0299 22.3613L11.534 23.2366C11.534 23.2366 11.553 23.2653 11.5435 23.2796L1.47962 40.8195C0.14156 43.1489 0.14156 46.0236 1.47962 48.3578L13.5458 69.4276C14.8792 71.757 17.3465 73.1919 20.0179 73.1919H33.2513V51.2516H23.3725C23.3725 51.2516 23.3488 51.2564 23.344 51.2659H23.3488Z" fill="#00378C"/>
<path d="M45.2795 29.3017C45.2795 29.3017 28.6012 37.1652 36.492 47.559C36.8858 44.1629 38.1859 37.5478 42.48 33.2908C42.48 33.2908 38.4611 38.1553 38.2144 46.8128C38.2144 46.8128 38.2144 46.8272 38.2144 46.8367C38.2144 46.8702 38.1479 47.7503 37.8443 48.3243C38.4421 48.0277 39.4148 47.7168 39.9225 47.4681C49.2652 42.8667 42.2712 34.2474 45.2795 29.2969V29.3017Z" fill="#00378C"/>
</g>
<defs>
<clipPath id="clip0_1411_4337">
<rect width="81.5217" height="75" fill="white" transform="translate(0.478516)"/>
</clipPath>
</defs>
</svg>
