<svg width="87" height="75" viewBox="0 0 87 75" fill="none" xmlns="http://www.w3.org/2000/svg">
<g clip-path="url(#clip0_220_1039)">
<path d="M43.5805 69.0184L39.5186 72.0101L43.5805 75L47.6407 72.0101L43.5805 69.0184Z" fill="#00378c"/>
<path d="M68.1025 1.89075C70.0188 3.64944 70.362 6.40988 70.362 6.40988C70.362 6.40988 67.6006 6.31787 65.6843 4.55917C63.768 2.80048 63.4248 0.0400391 63.4248 0.0400391C63.4248 0.0400391 66.1862 0.132054 68.1025 1.89075Z" fill="#00378c"/>
<path d="M54.6298 66.702C52.9809 68.8323 52.8809 71.3479 52.9033 71.3549C52.8964 71.3861 56.3633 70.4104 57.9208 68.0614C59.4766 65.742 58.7194 63.3374 58.7418 63.3444C58.7332 63.3669 56.277 64.5909 54.6298 66.7003V66.702Z" fill="#00378c"/>
<path d="M57.0583 74.0789C54.0158 73.5581 52.8791 71.2421 52.8809 71.2629C52.9171 71.2734 56.1787 70.3272 58.9884 70.6588C61.8257 71.006 63.4936 72.7803 63.4936 72.7994C63.5333 72.8081 60.1354 74.6102 57.0601 74.0772L57.0583 74.0789Z" fill="#00378c"/>
<path d="M60.6458 64.0423C59.5126 66.3773 59.9197 68.8201 59.9404 68.8253C59.9369 68.8583 62.9847 67.3339 64.0109 64.7992C65.0406 62.2922 63.8695 60.0943 63.8902 60.0978C63.885 60.1221 61.779 61.7263 60.6458 64.0423Z" fill="#00378c"/>
<path d="M64.363 70.7541C61.4049 70.7628 59.8992 68.7177 59.9009 68.7385C59.9337 68.7437 62.7934 67.2819 65.5203 67.1274C68.2748 66.9815 70.2049 68.4121 70.2066 68.4312C70.2446 68.4347 67.3521 70.7541 64.363 70.7559V70.7541Z" fill="#00378c"/>
<path d="M65.8396 60.4433C65.1962 62.8982 66.0534 65.1899 66.0724 65.1899C66.0724 65.2211 68.6838 63.2298 69.2064 60.5944C69.7342 57.9884 68.2095 56.0579 68.2284 56.0579C68.2284 56.0822 66.4864 58.0058 65.8396 60.4416V60.4433Z" fill="#00378c"/>
<path d="M70.6519 66.3027C67.8284 66.8183 66.0139 65.0944 66.0191 65.1135C66.0501 65.1135 68.4907 63.2124 71.0865 62.5909C73.7082 61.9746 75.8349 63.0267 75.8401 63.044C75.8746 63.0405 73.5064 65.7906 70.6536 66.3027H70.6519Z" fill="#00378c"/>
<path d="M70.1754 56.056C69.996 58.5508 71.243 60.622 71.262 60.6203C71.2672 60.6515 73.4214 58.2678 73.4663 55.615C73.5198 52.9883 71.7018 51.3771 71.7208 51.3737C71.7225 51.398 70.3616 53.5785 70.1771 56.056H70.1754Z" fill="#00378c"/>
<path d="M75.8846 60.9033C73.2456 61.8929 71.1897 60.537 71.1948 60.5543C71.2224 60.5491 73.2284 58.2835 75.6431 57.2227C78.0803 56.1637 80.338 56.8112 80.3449 56.8286C80.3777 56.8199 78.5511 59.9085 75.8846 60.9016V60.9033Z" fill="#00378c"/>
<path d="M73.6146 51.0265C73.8699 53.4883 75.4498 55.2817 75.4653 55.2765C75.4739 55.3061 77.1556 52.6081 76.7503 50.0126C76.3553 47.4414 74.3097 46.1897 74.3269 46.1844C74.3321 46.2088 73.3679 48.582 73.6146 51.0265Z" fill="#00378c"/>
<path d="M80.0188 54.7384C77.6179 56.1672 75.3825 55.2089 75.3911 55.2245C75.417 55.2158 76.9728 52.6585 79.1529 51.195C81.3538 49.7297 83.6737 49.9589 83.6823 49.9745C83.7116 49.9606 82.4456 53.3009 80.0188 54.7367V54.7384Z" fill="#00378c"/>
<path d="M76.1243 45.5056C76.7866 47.8685 78.6356 49.3355 78.6494 49.3286C78.6615 49.3564 79.8533 46.424 79.0254 43.9518C78.213 41.5039 76.0018 40.641 76.0156 40.6323C76.026 40.6549 75.4723 43.1584 76.1226 45.5039L76.1243 45.5056Z" fill="#00378c"/>
<path d="M83.0132 47.9899C80.9038 49.8146 78.558 49.2747 78.5684 49.2903C78.5908 49.2781 79.6826 46.5038 81.5747 44.6792C83.4875 42.8493 85.7988 42.6566 85.8091 42.6705C85.8367 42.6531 85.1485 46.1549 83.0132 47.9899Z" fill="#00378c"/>
<path d="M77.6644 39.6427C78.7045 41.8441 80.757 42.95 80.7708 42.9396C80.7881 42.9656 81.4694 39.8753 80.2499 37.5906C79.0477 35.3267 76.7382 34.8753 76.752 34.8649C76.7658 34.8857 76.6382 37.4552 77.6644 39.6427Z" fill="#00378c"/>
<path d="M84.8242 40.8424C83.0597 43.0143 80.6725 42.9049 80.6846 42.917C80.7036 42.9014 81.3159 39.9847 82.8665 37.8458C84.4361 35.6982 86.6663 35.0889 86.68 35.101C86.7042 35.0802 86.6128 38.6549 84.8242 40.8406V40.8424Z" fill="#00378c"/>
<path d="M78.201 33.589C79.586 35.5751 81.7799 36.2904 81.792 36.28C81.8127 36.3025 81.9679 33.1341 80.3863 31.0924C78.8253 29.0681 76.4865 29.0368 76.4986 29.0229C76.5158 29.042 76.8315 31.615 78.201 33.589Z" fill="#00378c"/>
<path d="M85.4108 33.4778C84.0465 35.9396 81.6887 36.2625 81.7042 36.273C81.7197 36.2539 81.8353 33.2695 82.9909 30.8719C84.1638 28.4621 86.2387 27.4535 86.2542 27.4639C86.2749 27.4396 86.7975 30.9986 85.4108 33.4778Z" fill="#00378c"/>
<path d="M77.6973 27.4934C79.3962 29.2156 81.6644 29.5264 81.6747 29.5125C81.7006 29.5316 81.309 26.3632 79.398 24.6149C77.511 22.8805 75.2119 23.2659 75.2222 23.252C75.2446 23.2677 76.0173 25.7798 77.6973 27.4934Z" fill="#00378c"/>
<path d="M84.7311 26.0819C83.8222 28.7728 81.5678 29.5159 81.5851 29.5246C81.5989 29.5038 81.2005 26.5246 81.9059 23.9273C82.6252 21.3162 84.469 19.9342 84.4862 19.9429C84.5035 19.9151 85.6591 23.37 84.7294 26.0819H84.7311Z" fill="#00378c"/>
<path d="M76.1139 21.5106C78.094 22.9272 80.3655 22.8266 80.3742 22.8127C80.4035 22.8283 79.4497 19.738 77.2419 18.3265C75.0618 16.9255 72.8747 17.7171 72.8833 17.7015C72.9092 17.7137 74.1562 20.1008 76.1139 21.5106Z" fill="#00378c"/>
<path d="M82.7438 18.8353C82.3489 21.686 80.2705 22.8318 80.2912 22.837C80.3015 22.8145 79.377 19.9151 79.5719 17.186C79.7806 14.4411 81.3157 12.7241 81.3364 12.7293C81.3519 12.6998 83.1561 15.9603 82.7421 18.8353H82.7438Z" fill="#00378c"/>
<path d="M73.4166 15.7903C75.6433 16.8649 77.8493 16.358 77.8562 16.3424C77.8907 16.3545 76.3539 13.4222 73.884 12.3823C71.4434 11.3493 69.4409 12.5281 69.4478 12.5107C69.4788 12.5194 71.2157 14.7173 73.4166 15.7885V15.7903Z" fill="#00378c"/>
<path d="M79.4034 11.9273C79.5811 14.8631 77.7562 16.3788 77.7787 16.3822C77.7856 16.3579 76.3178 13.6114 75.9469 10.8249C75.5864 8.02107 76.7352 6.01584 76.7576 6.01758C76.7697 5.98633 79.2413 8.96552 79.4034 11.9256V11.9273Z" fill="#00378c"/>
<path d="M69.5682 10.4845C72.007 11.1876 74.0751 10.2883 74.0785 10.2727C74.1165 10.2796 71.9812 7.58516 69.2836 6.94974C66.6187 6.31606 64.8767 7.84905 64.8818 7.83169C64.9163 7.83517 67.1586 9.77963 69.5682 10.4845Z" fill="#00378c"/>
<path d="M74.6702 5.54177C75.4791 8.48103 73.9854 10.3283 74.0113 10.3283C74.0148 10.304 71.9881 7.78485 70.9912 5.0192C70.0029 2.23446 70.6824 6.54613e-05 70.7083 6.54613e-05C70.7169 -0.0329209 73.8751 2.57474 74.6702 5.54177Z" fill="#00378c"/>
<path d="M43.1497 72.1273L43.198 71.5891C47.6325 71.9936 52.0532 71.4953 56.3359 70.1117C60.5099 68.7627 64.3735 66.6325 67.8214 63.7817C74.9759 57.865 79.5897 49.4205 80.8126 40.0038C81.8147 32.2937 81.3007 25.4221 79.2844 19.5818C77.1198 13.3091 73.2666 8.40285 67.8283 4.99484L68.1129 4.5365C73.6564 8.01048 77.5855 13.014 79.7915 19.4047C81.8354 25.3249 82.3563 32.2798 81.3439 40.075C80.102 49.6271 75.4209 58.1949 68.1594 64.2002C64.6598 67.096 60.7358 69.2575 56.4963 70.6273C52.1429 72.0335 47.6515 72.5388 43.1445 72.129L43.1497 72.1273Z" fill="#00378c"/>
<path d="M19.6457 1.89075C17.7295 3.64944 17.3862 6.40988 17.3862 6.40988C17.3862 6.40988 20.1476 6.31787 22.0639 4.55917C23.9784 2.80048 24.3234 0.0400391 24.3234 0.0400391C24.3234 0.0400391 21.562 0.132054 19.6457 1.89075Z" fill="#00378c"/>
<path d="M33.118 66.7019C34.7669 68.8321 34.867 71.3478 34.8445 71.3547C34.8514 71.386 31.3846 70.4103 29.8271 68.0613C28.2713 65.7418 29.0285 63.3373 29.0061 63.3443C29.0147 63.3668 31.4708 64.5908 33.118 66.7002V66.7019Z" fill="#00378c"/>
<path d="M30.6895 74.0788C33.7321 73.558 34.8687 71.242 34.867 71.2628C34.8308 71.2732 31.5692 70.327 28.7595 70.6586C25.9221 71.0059 24.2543 72.7802 24.2543 72.7993C24.2146 72.808 27.6125 74.6101 30.6878 74.0771L30.6895 74.0788Z" fill="#00378c"/>
<path d="M27.1018 64.0421C28.235 66.3772 27.828 68.8199 27.8073 68.8252C27.8107 68.8581 24.763 67.3338 23.7367 64.7991C22.707 62.2921 23.8782 60.0942 23.8575 60.0977C23.8627 60.122 25.9686 61.7261 27.1018 64.0421Z" fill="#00378c"/>
<path d="M23.385 70.754C26.3431 70.7627 27.8488 68.7175 27.8471 68.7384C27.8143 68.7436 24.9546 67.2818 22.2277 67.1273C19.4732 66.9814 17.5431 68.412 17.5414 68.4311C17.5034 68.4346 20.3959 70.754 23.385 70.7558V70.754Z" fill="#00378c"/>
<path d="M21.9086 60.4432C22.552 62.8981 21.6947 65.1898 21.6758 65.1898C21.6758 65.221 19.0644 63.2297 18.5418 60.5942C18.014 57.9883 19.5387 56.0577 19.5198 56.0577C19.5198 56.082 21.2618 58.0057 21.9086 60.4415V60.4432Z" fill="#00378c"/>
<path d="M17.0963 66.3026C19.9198 66.8182 21.7343 65.0943 21.7291 65.1133C21.6981 65.1133 19.2575 63.2123 16.6617 62.5908C14.0399 61.9744 11.9133 63.0265 11.9081 63.0439C11.8736 63.0404 14.2418 65.7904 17.0946 66.3026H17.0963Z" fill="#00378c"/>
<path d="M17.5724 56.056C17.7517 58.5508 16.5047 60.622 16.4857 60.6203C16.4806 60.6515 14.3263 58.2678 14.2814 55.615C14.228 52.9883 16.0459 51.3771 16.0269 51.3737C16.0252 51.398 17.3861 53.5785 17.5706 56.056H17.5724Z" fill="#00378c"/>
<path d="M11.8631 60.9033C14.5021 61.8929 16.5581 60.537 16.5529 60.5543C16.5253 60.5491 14.5193 58.2835 12.1046 57.2227C9.66745 56.1637 7.40968 56.8112 7.40278 56.8286C7.37001 56.8199 9.19658 59.9085 11.8631 60.9016V60.9033Z" fill="#00378c"/>
<path d="M14.1314 51.0264C13.8761 53.4882 12.2962 55.2816 12.2806 55.2764C12.272 55.3059 10.5903 52.608 10.9957 50.0125C11.3906 47.4413 13.4363 46.1895 13.419 46.1843C13.4138 46.2086 14.378 48.5819 14.1314 51.0264Z" fill="#00378c"/>
<path d="M7.72893 54.7383C10.1299 56.1671 12.3652 55.2088 12.3566 55.2244C12.3307 55.2157 10.7749 52.6584 8.59479 51.1949C6.39393 49.7296 4.07406 49.9587 4.06544 49.9744C4.03612 49.9605 5.30213 53.3008 7.72893 54.7366V54.7383Z" fill="#00378c"/>
<path d="M11.6237 45.5056C10.9614 47.8685 9.1124 49.3355 9.0986 49.3286C9.08653 49.3564 7.89469 46.424 8.7226 43.9518C9.53498 41.5039 11.7462 40.641 11.7324 40.6323C11.722 40.6549 12.2757 43.1584 11.6254 45.5039L11.6237 45.5056Z" fill="#00378c"/>
<path d="M4.7347 47.9899C6.84414 49.8146 9.18987 49.2747 9.17953 49.2903C9.1571 49.2781 8.0653 46.5038 6.17319 44.6792C4.26037 42.8493 1.94913 42.6566 1.93878 42.6705C1.91118 42.6531 2.59938 46.1549 4.7347 47.9899Z" fill="#00378c"/>
<path d="M10.0816 39.6427C9.04152 41.8441 6.989 42.95 6.9752 42.9396C6.95795 42.9656 6.27665 39.8753 7.49609 37.5906C8.69829 35.3267 11.0078 34.8753 10.994 34.8649C10.9802 34.8857 11.1078 37.4552 10.0816 39.6427Z" fill="#00378c"/>
<path d="M2.92366 40.8423C4.68814 43.0142 7.07528 42.9049 7.0632 42.917C7.04423 42.9014 6.43192 39.9847 4.88132 37.8458C3.31002 35.6999 1.07984 35.0906 1.06777 35.1027C1.04362 35.0819 1.13504 38.6566 2.92366 40.8423Z" fill="#00378c"/>
<path d="M9.54507 33.589C8.16005 35.5751 5.9661 36.2904 5.95402 36.2799C5.93332 36.3025 5.77809 33.1341 7.35974 31.0924C8.92069 29.0681 11.2595 29.0368 11.2475 29.0229C11.2302 29.042 10.9146 31.615 9.54507 33.589Z" fill="#00378c"/>
<path d="M2.33726 33.4778C3.70158 35.9396 6.0594 36.2625 6.04387 36.273C6.02835 36.2539 5.91279 33.2695 4.75717 30.8719C3.5843 28.4621 1.50935 27.4535 1.49383 27.4639C1.47313 27.4396 0.950516 30.9986 2.33726 33.4778Z" fill="#00378c"/>
<path d="M10.0504 27.4934C8.35142 29.2156 6.0833 29.5264 6.07295 29.5125C6.04708 29.5316 6.43861 26.3632 8.3497 24.6149C10.2366 22.8805 12.5358 23.2659 12.5255 23.252C12.503 23.2677 11.7303 25.7798 10.0504 27.4934Z" fill="#00378c"/>
<path d="M3.01491 26.0819C3.92389 28.7728 6.17821 29.5159 6.16096 29.5246C6.14717 29.5038 6.5456 26.5246 5.84015 23.9273C5.12091 21.3162 3.27709 19.9342 3.25984 19.9429C3.24259 19.9151 2.08697 23.37 3.01664 26.0819H3.01491Z" fill="#00378c"/>
<path d="M11.634 21.5106C9.6539 22.9272 7.38233 22.8266 7.3737 22.8127C7.34438 22.8283 8.2982 19.738 10.506 18.3265C12.6861 16.9255 14.8732 17.7171 14.8645 17.7015C14.8387 17.7137 13.5916 20.1008 11.634 21.5106Z" fill="#00378c"/>
<path d="M5.00382 18.8353C5.3988 21.686 7.47719 22.8318 7.45649 22.837C7.44615 22.8145 8.37064 19.9151 8.17574 17.186C7.96704 14.4411 6.43196 12.7241 6.41126 12.7293C6.39574 12.6998 4.59159 15.9603 5.00554 18.8353H5.00382Z" fill="#00378c"/>
<path d="M14.3299 15.7902C12.1031 16.8648 9.89712 16.3579 9.89022 16.3422C9.85572 16.3544 11.3925 13.4221 13.8625 12.3821C16.3031 11.3491 18.3056 12.528 18.2987 12.5106C18.2676 12.5193 16.5307 14.7172 14.3299 15.7884V15.7902Z" fill="#00378c"/>
<path d="M8.3447 11.9272C8.16704 14.863 9.99189 16.3786 9.96947 16.3821C9.96257 16.3578 11.4304 13.6113 11.8012 10.8248C12.1617 8.02094 11.013 6.01572 10.9906 6.01746C10.9785 5.98621 8.50683 8.9654 8.3447 11.9255V11.9272Z" fill="#00378c"/>
<path d="M18.1798 10.4845C15.7409 11.1876 13.6729 10.2883 13.6694 10.2727C13.6315 10.2796 15.7668 7.58516 18.4644 6.94974C21.1292 6.31606 22.8713 7.84905 22.8661 7.83169C22.8316 7.83517 20.5894 9.77963 18.1798 10.4845Z" fill="#00378c"/>
<path d="M13.0778 5.54177C12.2689 8.48103 13.7626 10.3283 13.7367 10.3283C13.7333 10.304 15.7599 7.78485 16.7569 5.0192C17.7452 2.23446 17.0639 6.54613e-05 17.0397 6.54613e-05C17.0311 -0.0329209 13.873 2.57474 13.0778 5.54177Z" fill="#00378c"/>
<path d="M44.5987 72.1273L44.5504 71.5891C40.116 71.9936 35.6953 71.4953 31.4126 70.1117C27.2386 68.7627 23.375 66.6325 19.9271 63.7817C12.7726 57.865 8.15873 49.4205 6.93584 40.0038C5.93372 32.2937 6.44772 25.4221 8.46402 19.5818C10.6287 13.3091 14.4819 8.40285 19.9202 4.99484L19.6356 4.5365C14.0921 8.01048 10.163 13.014 7.95692 19.4047C5.91303 25.3249 5.39213 32.2798 6.4046 40.075C7.64646 49.6271 12.3276 58.1949 19.589 64.2002C23.0887 67.096 27.0126 69.2575 31.2522 70.6273C35.6056 72.0335 40.097 72.5388 44.6039 72.129L44.5987 72.1273Z" fill="#00378c"/>
<path d="M32.1821 22.5448C32.2004 22.8703 32.2772 23.1346 32.4126 23.3378C32.6704 23.718 33.1248 23.9081 33.7759 23.9081C34.0675 23.9081 34.3332 23.8664 34.5728 23.7831C35.0363 23.6216 35.2681 23.3326 35.2681 22.9159C35.2681 22.6034 35.1704 22.3807 34.9751 22.2479C34.7772 22.1177 34.4673 22.0044 34.0454 21.9081L33.2681 21.7323C32.7603 21.6177 32.4009 21.4914 32.1899 21.3534C31.8254 21.1138 31.6431 20.7557 31.6431 20.2792C31.6431 19.7635 31.8215 19.3404 32.1782 19.0096C32.535 18.6789 33.0402 18.5135 33.6938 18.5135C34.2954 18.5135 34.8058 18.6594 35.2251 18.951C35.647 19.2401 35.8579 19.7037 35.8579 20.3417H35.1274C35.0884 20.0344 35.005 19.7987 34.8774 19.6346C34.6405 19.3352 34.2381 19.1854 33.6704 19.1854C33.2121 19.1854 32.8826 19.2818 32.6821 19.4745C32.4816 19.6672 32.3813 19.8912 32.3813 20.1464C32.3813 20.4276 32.4985 20.6333 32.7329 20.7635C32.8866 20.8469 33.2342 20.951 33.7759 21.076L34.5806 21.2596C34.9686 21.3482 35.2681 21.4693 35.479 21.6229C35.8436 21.8912 36.0259 22.2805 36.0259 22.7909C36.0259 23.4263 35.7941 23.8807 35.3306 24.1542C34.8696 24.4276 34.3332 24.5643 33.7212 24.5643C33.0076 24.5643 32.4491 24.382 32.0454 24.0175C31.6418 23.6555 31.4438 23.1646 31.4517 22.5448H32.1821ZM37.346 18.6581H38.1312V24.3964H37.346V18.6581ZM39.5568 18.6581H40.4748L43.3732 23.3065V18.6581H44.1115V24.3964H43.2404L40.299 19.7518V24.3964H39.5568V18.6581ZM47.916 18.5018C48.6426 18.5018 49.2064 18.6932 49.6074 19.076C50.0085 19.4589 50.2311 19.8938 50.2754 20.3807H49.5176C49.4317 20.0109 49.2598 19.718 49.002 19.5018C48.7468 19.2857 48.3874 19.1776 47.9238 19.1776C47.3587 19.1776 46.9017 19.3768 46.5528 19.7753C46.2064 20.1711 46.0332 20.7792 46.0332 21.5995C46.0332 22.2714 46.1895 22.8169 46.502 23.2362C46.8171 23.6529 47.2858 23.8612 47.9082 23.8612C48.4811 23.8612 48.9173 23.6412 49.2168 23.201C49.3757 22.9693 49.4942 22.6646 49.5723 22.287H50.3301C50.2624 22.8912 50.0384 23.3977 49.6582 23.8065C49.2025 24.2987 48.5879 24.5448 47.8145 24.5448C47.1478 24.5448 46.5879 24.343 46.1348 23.9393C45.5384 23.4055 45.2403 22.5813 45.2403 21.4667C45.2403 20.6203 45.4642 19.9263 45.9121 19.3846C46.3965 18.7961 47.0645 18.5018 47.916 18.5018ZM51.5135 18.6581H55.6971V19.3612H52.2713V21.1034H55.4393V21.7675H52.2713V23.7128H55.7557V24.3964H51.5135V18.6581Z" fill="#00378c"/>
<path d="M26.6569 34.684V32.812C28.6969 32.812 29.1529 31.828 29.5609 30.7H31.3369V47.5H28.6969V34.684H26.6569ZM42.7726 34.732V43.324C42.7726 46.156 41.4766 47.692 38.7406 47.692C36.1486 47.692 34.8046 46.156 34.8046 43.468V43.036H37.3006V43.636C37.3006 44.836 37.8286 45.292 38.6686 45.292C39.6046 45.292 40.1326 44.836 40.1326 43.228V40.156C39.6766 41.116 38.8606 41.644 37.6846 41.644C35.7406 41.644 34.7566 40.276 34.7566 37.804V34.732C34.7566 32.044 36.1726 30.508 38.7646 30.508C41.3566 30.508 42.7726 32.044 42.7726 34.732ZM38.7646 39.244C39.6046 39.244 40.1326 38.788 40.1326 37.588V34.564C40.1326 33.364 39.6046 32.932 38.7646 32.932C37.9246 32.932 37.3966 33.364 37.3966 34.564V37.588C37.3966 38.788 37.9246 39.244 38.7646 39.244ZM44.8482 43.468V34.876C44.8482 32.044 46.1442 30.508 48.8802 30.508C51.4722 30.508 52.8162 32.044 52.8162 34.732V35.164H50.3202V34.564C50.3202 33.364 49.7922 32.908 48.9522 32.908C48.0162 32.908 47.4882 33.364 47.4882 34.972V38.044C47.9442 37.084 48.7602 36.556 49.9362 36.556C51.8802 36.556 52.8642 37.924 52.8642 40.396V43.468C52.8642 46.156 51.4482 47.692 48.8562 47.692C46.2642 47.692 44.8482 46.156 44.8482 43.468ZM48.8562 38.956C48.0162 38.956 47.4882 39.412 47.4882 40.612V43.636C47.4882 44.836 48.0162 45.268 48.8562 45.268C49.6962 45.268 50.2242 44.836 50.2242 43.636V40.612C50.2242 39.412 49.6962 38.956 48.8562 38.956ZM57.4358 34.564V43.636C57.4358 44.836 57.9638 45.292 58.8038 45.292C59.6438 45.292 60.1718 44.836 60.1718 43.636V34.564C60.1718 33.364 59.6438 32.908 58.8038 32.908C57.9638 32.908 57.4358 33.364 57.4358 34.564ZM54.7958 43.468V34.732C54.7958 32.044 56.2118 30.508 58.8038 30.508C61.3958 30.508 62.8118 32.044 62.8118 34.732V43.468C62.8118 46.156 61.3958 47.692 58.8038 47.692C56.2118 47.692 54.7958 46.156 54.7958 43.468Z" fill="#00378c"/>
</g>
<defs>
<clipPath id="clip0_220_1039">
<rect width="85.6195" height="75" fill="white" transform="translate(0.929199)"/>
</clipPath>
</defs>
</svg>
