<svg width="212" height="26" viewBox="0 0 212 26" fill="none" xmlns="http://www.w3.org/2000/svg">
<g clip-path="url(#clip0_566_6255)">
<path d="M83.4614 9.39001C83.7485 7.75567 84.4124 6.21113 85.3994 4.88211C85.4174 4.82823 85.4712 4.77435 85.5071 4.75639C86.0095 4.07392 86.6197 3.48125 87.2836 2.94245C87.8758 2.45754 88.5039 2.04446 89.1678 1.72119C92.2005 0.320326 95.646 0.194609 98.8043 1.05668C101.586 1.84691 104.098 3.4992 106.018 5.67234C107.956 3.42737 110.558 1.77507 113.429 1.0028C115.009 0.589722 116.659 0.446045 118.292 0.535845C118.705 0.589724 119.1 0.607683 119.513 0.661562L120.715 0.913C121.092 0.984838 121.505 1.14647 121.881 1.23627C122.258 1.41587 122.671 1.54159 123.03 1.73915C123.658 2.04446 124.286 2.42162 124.806 2.88857H124.824C125.506 3.42737 126.099 4.038 126.601 4.72047C126.655 4.77435 126.709 4.84619 126.762 4.90007C127.732 6.22909 128.395 7.77363 128.665 9.40797C128.952 11.0423 128.79 12.6946 128.306 14.2751C127.767 15.8555 126.709 17.2384 125.309 18.1185C123.909 19.0164 122.204 19.4116 120.571 19.214C119.764 19.1422 118.938 18.9266 118.221 18.4956C117.485 18.0825 116.875 17.4719 116.444 16.7894C115.547 15.4065 115.35 13.5746 116.031 12.0481C116.39 11.3117 117.018 10.7011 117.79 10.3598C118.328 10.1084 118.938 9.98268 119.549 10.0545C119.674 10.0545 119.782 10.0545 119.908 10.0725C120.015 10.0725 120.087 10.0904 120.195 10.1264C120.213 10.1264 120.213 10.1443 120.213 10.1802C120.266 10.1982 120.284 10.2521 120.266 10.288C120.266 10.3598 120.195 10.3958 120.105 10.3958C119.567 10.27 119.01 10.288 118.472 10.4496H118.454C118.257 10.4676 118.095 10.5574 117.916 10.6472C117.252 10.9705 116.695 11.5452 116.39 12.2277C115.798 13.6106 116.031 15.2808 116.875 16.5021C117.288 17.1127 117.844 17.6515 118.508 18.0107C119.136 18.3699 119.89 18.5136 120.643 18.6034C122.115 18.7291 123.658 18.316 124.896 17.4899C126.152 16.6996 127.085 15.4245 127.552 14.0236C127.965 12.6048 128.09 11.0423 127.803 9.56961C127.516 8.09691 126.906 6.66013 125.991 5.45682C125.793 5.20538 125.578 4.97191 125.363 4.73843C124.95 4.27147 124.466 3.84044 123.963 3.48125C123.532 3.15797 123.048 2.87062 122.563 2.63714C122.24 2.45754 121.881 2.33182 121.541 2.2061C121.182 2.09834 120.823 1.97262 120.446 1.90079L119.351 1.70323C118.974 1.64935 118.58 1.63139 118.203 1.59547C116.695 1.48771 115.17 1.64935 113.717 2.0265C110.989 2.79877 108.548 4.37923 106.736 6.51645C107.705 7.80955 108.477 9.30021 109.033 10.8448C109.589 12.3534 109.876 14.0596 109.769 15.7119C109.697 17.3641 109.284 18.9805 108.674 20.5071C108.387 21.2435 108.01 21.9798 107.633 22.6982C107.22 23.4166 106.79 24.0991 106.251 24.7636L105.713 25.446L105.247 24.7097C103.506 21.9618 102.411 18.765 102.339 15.4784C102.321 14.6702 102.393 13.844 102.501 13.0358C102.555 12.6228 102.662 12.2277 102.752 11.7787L103.111 10.6292C103.614 9.15653 104.331 7.77363 105.247 6.51645C103.434 4.43312 101.101 2.81673 98.4633 2.08038C97.0098 1.64935 95.4845 1.48771 93.9771 1.57751L92.8286 1.64935L91.716 1.84691C91.3392 1.91875 90.9982 2.04446 90.6214 2.15222C90.2984 2.27794 89.9395 2.43958 89.5985 2.5653C89.0422 2.85265 88.5039 3.17593 88.0194 3.53513C87.5349 3.89432 87.1042 4.27148 86.7273 4.70251C86.53 4.90007 86.3146 5.13354 86.1352 5.36702C85.22 6.57033 84.6098 7.98915 84.3048 9.47981C83.9997 10.9525 84.1253 12.515 84.5381 13.9338C85.0046 15.3527 85.9378 16.6098 87.1939 17.4539C88.4142 18.2981 89.9395 18.7111 91.4469 18.5675C92.9542 18.4956 94.4078 17.7593 95.2332 16.5021C96.0766 15.2808 96.274 13.5746 95.7178 12.1917C95.4127 11.5272 94.8564 10.9346 94.1924 10.6113C93.9412 10.4856 93.6541 10.3778 93.3849 10.3598C92.9183 10.2521 92.4338 10.2521 91.9852 10.3598C91.9314 10.3598 91.8596 10.3419 91.8237 10.2521C91.8237 10.1982 91.8416 10.1264 91.9314 10.0904C92.0031 10.0725 92.057 10.0725 92.1288 10.0366C92.2005 10.0186 92.2903 10.0186 92.3621 10.0186C93.026 9.91084 93.7079 10.0366 94.318 10.3239C95.0897 10.6472 95.6998 11.2758 96.0767 12.0301C96.7586 13.5387 96.5612 15.3706 95.646 16.7715C95.2153 17.4539 94.6052 18.0646 93.8694 18.4597C93.1516 18.8907 92.3082 19.0883 91.5007 19.1781C89.8677 19.3756 88.1629 18.9446 86.7812 18.0646C85.3815 17.1666 84.3048 15.7657 83.7844 14.1853C83.2999 12.6048 83.1563 10.9166 83.4614 9.31817V9.39001ZM104.242 11.0782L103.919 12.1738C103.847 12.533 103.757 12.8922 103.721 13.2693C103.614 14.0057 103.56 14.742 103.596 15.5143C103.667 18.2442 104.493 20.8843 105.839 23.2729C107.364 21.0639 108.441 18.3699 108.584 15.6939C108.656 14.1853 108.423 12.7126 107.92 11.2758C107.454 9.94676 106.826 8.67162 106.018 7.55811C105.282 8.6357 104.69 9.80309 104.26 11.0782H104.242Z" fill="#F6C15E"/>
<path d="M3.60645 3.8585C3.60645 3.96626 3.67823 4.05606 3.80384 4.05606H6.65708L85.4892 4.73853H86.7453C87.1221 4.32545 87.5528 3.9483 88.0373 3.5891C87.9656 3.22991 87.6605 2.97847 87.2657 2.92459C87.2478 2.90663 87.1939 2.90663 87.158 2.90663H87.1401L6.65708 3.5891H3.80384C3.67823 3.60706 3.60645 3.71482 3.60645 3.84054V3.8585Z" fill="#F6C15E"/>
<path d="M123.963 3.51723C124.465 3.87643 124.95 4.30746 125.363 4.77441H126.619L205.343 4.09194H208.196C208.304 4.07398 208.394 3.96622 208.394 3.85847C208.394 3.73275 208.286 3.62499 208.196 3.62499H205.343L124.824 2.9066H124.806C124.429 2.9066 124.089 3.15804 123.963 3.51723Z" fill="#F6C15E"/>
<path d="M205.308 3.85848C205.308 5.4569 206.6 6.75 208.197 6.75C209.794 6.75 211.086 5.4569 211.086 3.85848C211.086 2.26006 209.794 0.966954 208.197 0.966954C206.6 0.966954 205.308 2.26006 205.308 3.85848Z" fill="#F6C15E"/>
<path d="M3.82175 0.966954C5.41738 0.966954 6.71088 2.26153 6.71088 3.85848C6.71088 5.45542 5.41738 6.75 3.82175 6.75C2.22613 6.75 0.932617 5.45542 0.932617 3.85848C0.932617 2.26153 2.22613 0.966954 3.82175 0.966954Z" fill="#F6C15E"/>
<path d="M90.6572 11.8325C90.6572 12.7844 91.4289 13.5566 92.3799 13.5566C93.331 13.5566 94.1026 12.7844 94.1026 11.8325C94.1026 10.8806 93.331 10.1084 92.3799 10.1084C91.4289 10.1084 90.6572 10.8806 90.6572 11.8325Z" fill="#F6C15E"/>
<path d="M117.826 11.8325C117.826 12.7844 118.597 13.5566 119.548 13.5566C120.499 13.5566 121.271 12.7844 121.271 11.8325C121.271 10.8806 120.499 10.1084 119.548 10.1084C118.597 10.1084 117.826 10.8806 117.826 11.8325Z" fill="#F6C15E"/>
</g>
<defs>
<clipPath id="clip0_566_6255">
<rect width="210.135" height="25" fill="white" transform="matrix(1 0 0 -1 0.932617 25.5)"/>
</clipPath>
</defs>
</svg>
