<svg width="212" height="25" viewBox="0 0 212 25" fill="none" xmlns="http://www.w3.org/2000/svg">
<g clip-path="url(#clip0_220_1142)">
<path d="M83.4614 8.89013C83.7485 7.25579 84.4124 5.71125 85.3994 4.38223C85.4174 4.32835 85.4712 4.27447 85.5071 4.25651C86.0095 3.57404 86.6197 2.98137 87.2836 2.44257C87.8758 1.95766 88.5039 1.54459 89.1678 1.22131C92.2005 -0.179552 95.646 -0.305269 98.8043 0.556799C101.586 1.34703 104.098 2.99933 106.018 5.17246C107.956 2.92749 110.558 1.27519 113.429 0.502918C115.009 0.0898438 116.659 -0.053833 118.292 0.0359669C118.705 0.0898457 119.1 0.107805 119.513 0.161684L120.715 0.413122C121.092 0.484961 121.505 0.646597 121.881 0.736397C122.258 0.915995 122.671 1.04171 123.03 1.23927C123.658 1.54459 124.286 1.92174 124.806 2.38869H124.824C125.506 2.92749 126.099 3.53812 126.601 4.22059C126.655 4.27447 126.709 4.34631 126.762 4.40019C127.732 5.72921 128.395 7.27375 128.665 8.90809C128.952 10.5424 128.79 12.1947 128.306 13.7752C127.767 15.3556 126.709 16.7386 125.309 17.6186C123.909 18.5166 122.204 18.9117 120.571 18.7141C119.764 18.6423 118.938 18.4268 118.221 17.9957C117.485 17.5827 116.875 16.972 116.444 16.2896C115.547 14.9067 115.35 13.0748 116.031 11.5482C116.39 10.8118 117.018 10.2012 117.79 9.85996C118.328 9.60852 118.938 9.4828 119.549 9.55464C119.674 9.55464 119.782 9.55464 119.908 9.5726C120.015 9.5726 120.087 9.59056 120.195 9.62648C120.213 9.62648 120.213 9.64444 120.213 9.68036C120.266 9.69832 120.284 9.7522 120.266 9.78812C120.266 9.85996 120.195 9.89588 120.105 9.89588C119.567 9.77016 119.01 9.78812 118.472 9.94976H118.454C118.257 9.96772 118.095 10.0575 117.916 10.1473C117.252 10.4706 116.695 11.0453 116.39 11.7278C115.798 13.1107 116.031 14.7809 116.875 16.0022C117.288 16.6128 117.844 17.1516 118.508 17.5108C119.136 17.87 119.89 18.0137 120.643 18.1035C122.115 18.2292 123.658 17.8161 124.896 16.99C126.152 16.1998 127.085 14.9246 127.552 13.5238C127.965 12.1049 128.09 10.5424 127.803 9.06973C127.516 7.59703 126.906 6.16025 125.991 4.95694C125.793 4.70551 125.578 4.47203 125.363 4.23855C124.95 3.7716 124.466 3.34056 123.963 2.98137C123.532 2.65809 123.048 2.37074 122.563 2.13726C122.24 1.95766 121.881 1.83194 121.541 1.70622C121.182 1.59846 120.823 1.47275 120.446 1.40091L119.351 1.20335C118.974 1.14947 118.58 1.13151 118.203 1.09559C116.695 0.987833 115.17 1.14947 113.717 1.52663C110.989 2.2989 108.548 3.87936 106.736 6.01657C107.705 7.30967 108.477 8.80033 109.033 10.3449C109.589 11.8535 109.876 13.5597 109.769 15.212C109.697 16.8643 109.284 18.4806 108.674 20.0072C108.387 20.7436 108.01 21.4799 107.633 22.1983C107.22 22.9167 106.79 23.5992 106.251 24.2637L105.713 24.9462L105.247 24.2098C103.506 21.462 102.411 18.2651 102.339 14.9785C102.321 14.1703 102.393 13.3442 102.501 12.536C102.555 12.1229 102.662 11.7278 102.752 11.2788L103.111 10.1294C103.614 8.65666 104.331 7.27375 105.247 6.01657C103.434 3.93324 101.101 2.31686 98.4633 1.58051C97.0098 1.14947 95.4845 0.987833 93.9771 1.07763L92.8286 1.14947L91.716 1.34703C91.3392 1.41887 90.9982 1.54459 90.6214 1.65235C90.2984 1.77806 89.9395 1.9397 89.5985 2.06542C89.0422 2.35278 88.5039 2.67605 88.0194 3.03525C87.5349 3.39444 87.1042 3.7716 86.7273 4.20263C86.53 4.40019 86.3146 4.63367 86.1352 4.86714C85.22 6.07045 84.6098 7.48927 84.3048 8.97993C83.9997 10.4526 84.1253 12.0151 84.5381 13.434C85.0046 14.8528 85.9378 16.11 87.1939 16.9541C88.4142 17.7982 89.9395 18.2113 91.4469 18.0676C92.9542 17.9957 94.4078 17.2594 95.2332 16.0022C96.0766 14.7809 96.274 13.0748 95.7178 11.6919C95.4127 11.0273 94.8564 10.4347 94.1924 10.1114C93.9412 9.98568 93.6541 9.87792 93.3849 9.85996C92.9183 9.7522 92.4338 9.7522 91.9852 9.85996C91.9314 9.85996 91.8596 9.842 91.8237 9.7522C91.8237 9.69832 91.8416 9.62648 91.9314 9.59056C92.0031 9.5726 92.057 9.5726 92.1288 9.53668C92.2005 9.51872 92.2903 9.51872 92.3621 9.51872C93.026 9.41097 93.7079 9.53668 94.318 9.82404C95.0897 10.1473 95.6998 10.7759 96.0767 11.5302C96.7586 13.0388 96.5612 14.8707 95.646 16.2716C95.2153 16.9541 94.6052 17.5647 93.8694 17.9598C93.1516 18.3909 92.3082 18.5884 91.5007 18.6782C89.8677 18.8758 88.1629 18.4447 86.7812 17.5647C85.3815 16.6667 84.3048 15.2659 83.7844 13.6854C83.2999 12.1049 83.1563 10.4167 83.4614 8.81829V8.89013ZM104.242 10.5784L103.919 11.6739C103.847 12.0331 103.757 12.3923 103.721 12.7694C103.614 13.5058 103.56 14.2421 103.596 15.0144C103.667 17.7443 104.493 20.3844 105.839 22.773C107.364 20.564 108.441 17.87 108.584 15.194C108.656 13.6854 108.423 12.2127 107.92 10.7759C107.454 9.44689 106.826 8.17174 106.018 7.05824C105.282 8.13582 104.69 9.30321 104.26 10.5784H104.242Z" fill="white"/>
<path d="M3.60645 3.3585C3.60645 3.46626 3.67823 3.55606 3.80384 3.55606H6.65708L85.4892 4.23853H86.7453C87.1221 3.82545 87.5528 3.4483 88.0373 3.0891C87.9656 2.72991 87.6605 2.47847 87.2657 2.42459C87.2478 2.40663 87.1939 2.40663 87.158 2.40663H87.1401L6.65708 3.0891H3.80384C3.67823 3.10706 3.60645 3.21482 3.60645 3.34054V3.3585Z" fill="white"/>
<path d="M123.963 3.01723C124.465 3.37643 124.95 3.80746 125.363 4.27441H126.619L205.343 3.59194H208.196C208.304 3.57398 208.394 3.46622 208.394 3.35847C208.394 3.23275 208.286 3.12499 208.196 3.12499H205.343L124.824 2.4066H124.806C124.429 2.4066 124.089 2.65804 123.963 3.01723Z" fill="white"/>
<path d="M205.308 3.35848C205.308 4.9569 206.6 6.25 208.197 6.25C209.794 6.25 211.086 4.9569 211.086 3.35848C211.086 1.76006 209.794 0.466954 208.197 0.466954C206.6 0.466954 205.308 1.76006 205.308 3.35848Z" fill="white"/>
<path d="M3.82175 0.466954C5.41738 0.466954 6.71088 1.76153 6.71088 3.35848C6.71088 4.95542 5.41738 6.25 3.82175 6.25C2.22613 6.25 0.932617 4.95542 0.932617 3.35848C0.932617 1.76153 2.22613 0.466954 3.82175 0.466954Z" fill="white"/>
<path d="M90.6572 11.3326C90.6572 12.2845 91.4289 13.0568 92.3799 13.0568C93.331 13.0568 94.1026 12.2845 94.1026 11.3326C94.1026 10.3808 93.331 9.60849 92.3799 9.60849C91.4289 9.60849 90.6572 10.3808 90.6572 11.3326Z" fill="white"/>
<path d="M117.826 11.3326C117.826 12.2845 118.597 13.0568 119.548 13.0568C120.499 13.0568 121.271 12.2845 121.271 11.3326C121.271 10.3808 120.499 9.60849 119.548 9.60849C118.597 9.60849 117.826 10.3808 117.826 11.3326Z" fill="white"/>
</g>
<defs>
<clipPath id="clip0_220_1142">
<rect width="210.135" height="25" fill="white" transform="matrix(1 0 0 -1 0.932617 25)"/>
</clipPath>
</defs>
</svg>
