<svg width="212" height="25" viewBox="0 0 212 25" fill="none" xmlns="http://www.w3.org/2000/svg">
<g id="Layer_1" clip-path="url(#clip0_454_3623)">
<path id="Vector" d="M83.4614 8.89001C83.7485 7.25567 84.4124 5.71113 85.3994 4.38211C85.4174 4.32823 85.4712 4.27435 85.5071 4.25639C86.0095 3.57392 86.6197 2.98125 87.2836 2.44245C87.8758 1.95754 88.5039 1.54446 89.1678 1.22119C92.2005 -0.179674 95.646 -0.305391 98.8043 0.556677C101.586 1.34691 104.098 2.9992 106.018 5.17234C107.956 2.92737 110.558 1.27507 113.429 0.502796C115.009 0.0897217 116.659 -0.0539551 118.292 0.0358448C118.705 0.0897236 119.1 0.107683 119.513 0.161562L120.715 0.413C121.092 0.484838 121.505 0.646475 121.881 0.736275C122.258 0.915873 122.671 1.04159 123.03 1.23915C123.658 1.54446 124.286 1.92162 124.806 2.38857H124.824C125.506 2.92737 126.099 3.538 126.601 4.22047C126.655 4.27435 126.709 4.34619 126.762 4.40007C127.732 5.72909 128.395 7.27363 128.665 8.90797C128.952 10.5423 128.79 12.1946 128.306 13.7751C127.767 15.3555 126.709 16.7384 125.309 17.6185C123.909 18.5164 122.204 18.9116 120.571 18.714C119.764 18.6422 118.938 18.4266 118.221 17.9956C117.485 17.5825 116.875 16.9719 116.444 16.2894C115.547 14.9065 115.35 13.0746 116.031 11.5481C116.39 10.8117 117.018 10.2011 117.79 9.85984C118.328 9.6084 118.938 9.48268 119.549 9.55452C119.674 9.55452 119.782 9.55452 119.908 9.57248C120.015 9.57248 120.087 9.59044 120.195 9.62636C120.213 9.62636 120.213 9.64432 120.213 9.68024C120.266 9.6982 120.284 9.75208 120.266 9.788C120.266 9.85984 120.195 9.89576 120.105 9.89576C119.567 9.77004 119.01 9.788 118.472 9.94964H118.454C118.257 9.9676 118.095 10.0574 117.916 10.1472C117.252 10.4705 116.695 11.0452 116.39 11.7277C115.798 13.1106 116.031 14.7808 116.875 16.0021C117.288 16.6127 117.844 17.1515 118.508 17.5107C119.136 17.8699 119.89 18.0136 120.643 18.1034C122.115 18.2291 123.658 17.816 124.896 16.9899C126.152 16.1996 127.085 14.9245 127.552 13.5236C127.965 12.1048 128.09 10.5423 127.803 9.06961C127.516 7.59691 126.906 6.16013 125.991 4.95682C125.793 4.70538 125.578 4.47191 125.363 4.23843C124.95 3.77147 124.466 3.34044 123.963 2.98125C123.532 2.65797 123.048 2.37062 122.563 2.13714C122.24 1.95754 121.881 1.83182 121.541 1.7061C121.182 1.59834 120.823 1.47262 120.446 1.40079L119.351 1.20323C118.974 1.14935 118.58 1.13139 118.203 1.09547C116.695 0.987711 115.17 1.14935 113.717 1.5265C110.989 2.29877 108.548 3.87923 106.736 6.01645C107.705 7.30955 108.477 8.80021 109.033 10.3448C109.589 11.8534 109.876 13.5596 109.769 15.2119C109.697 16.8641 109.284 18.4805 108.674 20.0071C108.387 20.7435 108.01 21.4798 107.633 22.1982C107.22 22.9166 106.79 23.5991 106.251 24.2636L105.713 24.946L105.247 24.2097C103.506 21.4618 102.411 18.265 102.339 14.9784C102.321 14.1702 102.393 13.344 102.501 12.5358C102.555 12.1228 102.662 11.7277 102.752 11.2787L103.111 10.1292C103.614 8.65653 104.331 7.27363 105.247 6.01645C103.434 3.93312 101.101 2.31673 98.4633 1.58038C97.0098 1.14935 95.4845 0.987711 93.9771 1.07751L92.8286 1.14935L91.716 1.34691C91.3392 1.41875 90.9982 1.54446 90.6214 1.65222C90.2984 1.77794 89.9395 1.93958 89.5985 2.0653C89.0422 2.35265 88.5039 2.67593 88.0194 3.03513C87.5349 3.39432 87.1042 3.77148 86.7273 4.20251C86.53 4.40007 86.3146 4.63354 86.1352 4.86702C85.22 6.07033 84.6098 7.48915 84.3048 8.97981C83.9997 10.4525 84.1253 12.015 84.5381 13.4338C85.0046 14.8527 85.9378 16.1098 87.1939 16.9539C88.4142 17.7981 89.9395 18.2111 91.4469 18.0675C92.9542 17.9956 94.4078 17.2593 95.2332 16.0021C96.0766 14.7808 96.274 13.0746 95.7178 11.6917C95.4127 11.0272 94.8564 10.4346 94.1924 10.1113C93.9412 9.98556 93.6541 9.8778 93.3849 9.85984C92.9183 9.75208 92.4338 9.75208 91.9852 9.85984C91.9314 9.85984 91.8596 9.84188 91.8237 9.75208C91.8237 9.6982 91.8416 9.62636 91.9314 9.59044C92.0031 9.57248 92.057 9.57248 92.1288 9.53656C92.2005 9.5186 92.2903 9.5186 92.3621 9.5186C93.026 9.41084 93.7079 9.53656 94.318 9.82392C95.0897 10.1472 95.6998 10.7758 96.0767 11.5301C96.7586 13.0387 96.5612 14.8706 95.646 16.2715C95.2153 16.9539 94.6052 17.5646 93.8694 17.9597C93.1516 18.3907 92.3082 18.5883 91.5007 18.6781C89.8677 18.8756 88.1629 18.4446 86.7812 17.5646C85.3815 16.6666 84.3048 15.2657 83.7844 13.6853C83.2999 12.1048 83.1563 10.4166 83.4614 8.81817V8.89001ZM104.242 10.5782L103.919 11.6738C103.847 12.033 103.757 12.3922 103.721 12.7693C103.614 13.5057 103.56 14.242 103.596 15.0143C103.667 17.7442 104.493 20.3843 105.839 22.7729C107.364 20.5639 108.441 17.8699 108.584 15.1939C108.656 13.6853 108.423 12.2126 107.92 10.7758C107.454 9.44676 106.826 8.17162 106.018 7.05811C105.282 8.1357 104.69 9.30309 104.26 10.5782H104.242Z" fill="#00378c"/>
<path id="Vector_2" d="M3.60645 3.3585C3.60645 3.46626 3.67823 3.55606 3.80384 3.55606H6.65708L85.4892 4.23853H86.7453C87.1221 3.82545 87.5528 3.4483 88.0373 3.0891C87.9656 2.72991 87.6605 2.47847 87.2657 2.42459C87.2478 2.40663 87.1939 2.40663 87.158 2.40663H87.1401L6.65708 3.0891H3.80384C3.67823 3.10706 3.60645 3.21482 3.60645 3.34054V3.3585Z" fill="#00378c"/>
<path id="Vector_3" d="M123.963 3.01723C124.465 3.37643 124.95 3.80746 125.363 4.27441H126.619L205.343 3.59194H208.196C208.304 3.57398 208.394 3.46622 208.394 3.35847C208.394 3.23275 208.286 3.12499 208.196 3.12499H205.343L124.824 2.4066H124.806C124.429 2.4066 124.089 2.65804 123.963 3.01723Z" fill="#00378c"/>
<path id="Vector_4" d="M205.308 3.35848C205.308 4.9569 206.6 6.25 208.197 6.25C209.794 6.25 211.086 4.9569 211.086 3.35848C211.086 1.76006 209.794 0.466954 208.197 0.466954C206.6 0.466954 205.308 1.76006 205.308 3.35848Z" fill="#00378c"/>
<path id="Vector_5" d="M3.82175 0.466954C5.41738 0.466954 6.71088 1.76153 6.71088 3.35848C6.71088 4.95542 5.41738 6.25 3.82175 6.25C2.22613 6.25 0.932617 4.95542 0.932617 3.35848C0.932617 1.76153 2.22613 0.466954 3.82175 0.466954Z" fill="#00378c"/>
<path id="Vector_6" d="M90.6572 11.3325C90.6572 12.2844 91.4289 13.0566 92.3799 13.0566C93.331 13.0566 94.1026 12.2844 94.1026 11.3325C94.1026 10.3806 93.331 9.60837 92.3799 9.60837C91.4289 9.60837 90.6572 10.3806 90.6572 11.3325Z" fill="#00378c"/>
<path id="Vector_7" d="M117.826 11.3325C117.826 12.2844 118.597 13.0566 119.548 13.0566C120.499 13.0566 121.271 12.2844 121.271 11.3325C121.271 10.3806 120.499 9.60837 119.548 9.60837C118.597 9.60837 117.826 10.3806 117.826 11.3325Z" fill="#00378c"/>
</g>
<defs>
<clipPath id="clip0_454_3623">
<rect width="210.135" height="25" fill="white" transform="matrix(1 0 0 -1 0.932617 25)"/>
</clipPath>
</defs>
</svg>
